<?xml version="1.0" encoding="UTF-8"?><svg id="a" xmlns="http://www.w3.org/2000/svg" width="100" height="100" viewBox="0 0 100 100"><defs><style>.b{fill:#abcca2;}.c{fill:#597a4c;}</style></defs><rect class="b" y=".231" width="99.769" height="99.769"/><path class="c" d="M74.652,19.48l-.324-.112c-4.323-1.494-9.19-1.266-13.353,.625-1.455,.661-2.6,1.422-3.501,2.326-2.267,2.274-2.825,5.715-1.511,8.521l-2.213,1.433v-11.702c0-.541-.439-.982-.982-.982s-.982,.439-.982,.982v24.412l-3.772-2.517c1.962-3.722,1.308-8.438-1.717-11.557-1.183-1.22-2.7-2.256-4.637-3.169-5.57-2.624-12.121-3.021-17.968-1.089l-.356,.16-.375,.562,.025,.337c.46,6.141,3.34,12.037,7.903,16.174,1.585,1.437,3.125,2.44,4.707,3.064,1.201,.474,2.451,.702,3.687,.702,2.922,0,5.749-1.279,7.636-3.556l4.714,3.145c.049,.032,.103,.05,.155,.073v9.712h-12.354c-1.115,0-2.136,.512-2.802,1.405-.666,.893-.867,2.019-.552,3.087l5.352,18.052c.437,1.474,1.817,2.503,3.354,2.503h15.964c1.537,0,2.917-1.029,3.354-2.505l5.353-18.052c.316-1.069,.116-2.193-.552-3.087-.667-.893-1.689-1.405-2.802-1.405h-12.353v-22.41l3.264-2.114c1.429,1.661,3.538,2.591,5.712,2.591,.903,0,1.817-.16,2.697-.494,1.192-.452,2.354-1.186,3.555-2.243,3.429-3.026,5.627-7.375,6.031-11.929l.029-.332-.387-.611Zm-28.284,21.886l-12.3-8.206c-.45-.301-1.06-.179-1.361,.272-.301,.451-.179,1.061,.272,1.361l12.298,8.206c-2.166,2.479-5.781,3.381-8.964,2.123-1.357-.536-2.702-1.417-4.108-2.693-4.012-3.639-6.608-8.755-7.196-14.133,5.19-1.521,10.913-1.088,15.813,1.22,1.718,.81,3.047,1.713,4.064,2.759,2.385,2.458,2.94,6.14,1.482,9.092h0Zm19.735,17.619c.489,0,.937,.225,1.231,.617,.292,.392,.381,.886,.242,1.355l-5.353,18.052c-.192,.647-.797,1.099-1.472,1.099h-15.965c-.675,0-1.281-.453-1.472-1.1l-5.352-18.052c-.14-.469-.051-.962,.242-1.355,.292-.392,.741-.616,1.231-.616h26.669Zm1.576-28.108c-1.02,.899-1.985,1.513-2.953,1.88-2.143,.812-4.538,.24-6.044-1.342l8.824-5.715c.455-.294,.585-.901,.29-1.357-.296-.455-.903-.586-1.358-.29l-8.824,5.715c-.828-2.023-.369-4.443,1.247-6.065,.731-.734,1.688-1.363,2.924-1.924,2.088-.949,4.375-1.429,6.663-1.429,1.527,0,3.053,.213,4.52,.643-.519,3.784-2.42,7.353-5.288,9.884h0Z"/></svg>