<svg id="Layer_1" data-name="Layer 1" xmlns="http://www.w3.org/2000/svg" width="48" height="48" viewBox="0 0 48 48"><defs><style>.cls-1{fill-rule:evenodd;}</style></defs><path class="cls-1" d="M17.455,9.051a15.067,15.067,0,0,0-8.172,5.1,14.641,14.641,0,0,0-2.86,9.279.941.941,0,0,1-.3.755,1.066,1.066,0,0,1-.754.351H5.345a.952.952,0,0,1-.729-.324,1.068,1.068,0,0,1-.35-.755A16.773,16.773,0,0,1,7.584,12.827,17.32,17.32,0,0,1,16.89,6.974a20.441,20.441,0,0,1,8.173-.567,39.993,39.993,0,0,1,6.9,1.915,54.208,54.208,0,0,0,6.178,1.808,12.824,12.824,0,0,0,6.095-.162,8.4,8.4,0,0,0,2.132-1.025,1.012,1.012,0,0,1,1.158.027,1.072,1.072,0,0,1,.46,1.079,63.163,63.163,0,0,1-1.835,8.982q-1.968,5.988-6.986,7.445a17.5,17.5,0,0,1-4.91.35,17.263,17.263,0,0,0-4.639.324q-1.133.351-3.1,2.967a10.938,10.938,0,0,1-5.584,4.1,14.683,14.683,0,0,1-9.6-.378A11.743,11.743,0,0,1,5.613,29.47,20.731,20.731,0,0,0,2.134,40.718a1.033,1.033,0,0,1-.325.755.986.986,0,0,1-.728.3H1.027a1.136,1.136,0,0,1-.755-.35A1.023,1.023,0,0,1,0,40.636q.324-8.388,4.936-13.81,6.931-8.361,23.656-9.5a1.078,1.078,0,0,1,.783.27,1.042,1.042,0,0,1,.349.728.976.976,0,0,1-.242.783,1.03,1.03,0,0,1-.755.377q-15.186,1.026-21.686,8.2a9.535,9.535,0,0,0,5.071,4.127,12.577,12.577,0,0,0,8.2.324A8.829,8.829,0,0,0,24.818,28.8Q27.193,25.641,29,25.073a19.75,19.75,0,0,1,5.287-.405,16.41,16.41,0,0,0,4.262-.269q3.963-1.134,5.529-6.042A46.467,46.467,0,0,0,45.533,11.8l-.7.243a14.674,14.674,0,0,1-7.093.216,64.21,64.21,0,0,1-6.473-1.889,38.032,38.032,0,0,0-6.529-1.834,18.182,18.182,0,0,0-7.28.512Z"/></svg>