<?xml version="1.0" encoding="UTF-8"?><svg id="a" xmlns="http://www.w3.org/2000/svg" width="75.828" height="93.46" viewBox="0 0 75.828 93.46"><defs><style>.b,.c{fill:#fff;}.d{fill:#597a4c;}.c{fill-rule:evenodd;}</style></defs><g><path class="d" d="M61.065,10.114c-4.172-3.426-9.054-5.881-14.292-7.187-5.238-1.305-10.701-1.43-15.993-.363-9.249,1.879-17.401,7.289-22.723,15.082C2.735,25.439,.66,35.001,2.275,44.299c1.615,9.298,6.792,17.601,14.43,23.143,8.075,6.115,14.702,13.936,19.408,22.906,.398,.656,1.109,1.06,1.877,1.066,.779-.007,1.495-.43,1.877-1.109l.981-1.792h0c4.998-8.542,11.655-15.996,19.579-21.924,5.696-4.481,9.918-10.566,12.122-17.471,2.204-6.905,2.288-14.31,.241-21.262-2.047-6.952-6.13-13.132-11.723-17.741h-.001Z"/><path class="b" d="M37.999,92.414c-1.122-.009-2.166-.601-2.74-1.546-4.639-8.837-11.253-16.643-19.157-22.629-7.877-5.714-13.144-14.16-14.812-23.769-1.668-9.609,.442-19.335,5.942-27.388C12.73,9.03,21.022,3.526,30.581,1.584c5.403-1.089,11.085-.959,16.435,.373,5.348,1.333,10.426,3.887,14.685,7.384h0c5.771,4.758,9.937,11.063,12.047,18.234,2.111,7.171,2.026,14.726-.248,21.849-2.272,7.122-6.579,13.33-12.455,17.953-7.879,5.895-14.377,13.171-19.334,21.643l-.966,1.767c-.562,.999-1.612,1.619-2.746,1.629Zm-.039-89.562c-2.346,0-4.691,.23-6.983,.692-9.044,1.837-16.892,7.046-22.095,14.666C3.678,25.831,1.681,35.035,3.26,44.128c1.579,9.093,6.562,17.085,14.033,22.504,8.153,6.175,14.962,14.211,19.706,23.251,.187,.303,.582,.527,1,.53,.403-.004,.792-.233,.999-.6l.975-1.781c5.105-8.728,11.781-16.203,19.856-22.244,5.541-4.359,9.616-10.234,11.767-16.974,2.152-6.74,2.233-13.89,.235-20.676-1.997-6.786-5.939-12.752-11.399-17.252h0c-4.031-3.311-8.837-5.727-13.899-6.99-2.793-.696-5.683-1.045-8.571-1.045Z"/></g><path class="c" d="M32.458,23.774c-3.209,.76-6.079,2.552-8.172,5.1-1.981,2.678-2.99,5.951-2.86,9.279,.019,.284-.091,.562-.3,.755-.193,.214-.466,.341-.754,.351h-.024c-.279,.004-.545-.114-.729-.324-.214-.194-.34-.466-.35-.755-.137-3.818,1.034-7.568,3.318-10.63,2.384-2.91,5.651-4.964,9.306-5.853,2.658-.739,5.438-.931,8.173-.567,2.353,.431,4.662,1.072,6.9,1.915,2.022,.725,4.085,1.328,6.178,1.808,2.015,.437,4.106,.381,6.095-.162,.755-.239,1.473-.584,2.132-1.025,.353-.235,.816-.224,1.158,.027,.354,.236,.534,.66,.46,1.079-.393,3.034-1.007,6.036-1.835,8.982-1.312,3.992-3.641,6.474-6.986,7.445-1.612,.347-3.265,.465-4.91,.35-1.554-.102-3.114,.007-4.639,.324-.755,.234-1.789,1.223-3.1,2.967-1.368,1.936-3.328,3.374-5.584,4.1-3.152,.954-6.533,.821-9.6-.378-2.317-.822-4.317-2.35-5.719-4.369-2.222,3.334-3.431,7.241-3.479,11.248,0,.286-.117,.559-.325,.755-.19,.197-.454,.305-.728,.3h-.054c-.287-.017-.557-.142-.755-.35-.198-.212-.297-.498-.272-.787,.216-5.592,1.861-10.195,4.936-13.81,4.621-5.574,12.506-8.741,23.656-9.5,.287-.018,.568,.079,.783,.27,.209,.186,.335,.448,.349,.728,.038,.284-.05,.57-.242,.783-.186,.228-.461,.365-.755,.377-10.124,.684-17.353,3.417-21.686,8.2,1.151,1.93,2.947,3.392,5.071,4.127,2.62,1.022,5.507,1.136,8.2,.324,1.824-.593,3.406-1.763,4.506-3.335,1.583-2.106,2.977-3.348,4.182-3.727,1.736-.372,3.514-.508,5.287-.405,1.426,.096,2.859,.006,4.262-.269,2.642-.756,4.485-2.77,5.529-6.042,.643-2.148,1.129-4.339,1.455-6.557l-.7,.243c-2.311,.651-4.747,.725-7.093,.216-2.189-.516-4.35-1.146-6.473-1.889-2.117-.805-4.302-1.418-6.529-1.834-2.436-.323-4.913-.149-7.28,.512l-.003,.003Z"/></svg>